<svg width="41" height="41" viewBox="0 0 41 41" fill="none" xmlns="http://www.w3.org/2000/svg">
<path d="M20.5 39C30.7173 39 39 30.7173 39 20.5C39 10.2827 30.7173 2 20.5 2C10.2827 2 2 10.2827 2 20.5C2 30.7173 10.2827 39 20.5 39Z" stroke="#F9593A" stroke-width="3"/>
<path d="M20.784 29.2139C20.5927 29.0214 20.4854 28.7615 20.4854 28.4902C20.4854 28.2189 20.5927 27.9585 20.784 27.7661L27.051 21.499H12.5C12.2348 21.499 11.9804 21.3936 11.7929 21.2061C11.6054 21.0185 11.5 20.7642 11.5 20.499C11.5 20.2338 11.6054 19.9795 11.7929 19.792C11.9804 19.6045 12.2348 19.499 12.5 19.499H27.056L20.785 13.2271C20.5932 13.0353 20.4855 12.7751 20.4855 12.5039C20.4855 12.2327 20.5932 11.9725 20.785 11.7808C20.9767 11.589 21.2368 11.4814 21.508 11.4814C21.7792 11.4814 22.0393 11.589 22.231 11.7808L30.183 19.7329C30.2938 19.8433 30.3776 19.9779 30.428 20.126C30.4773 20.2488 30.5017 20.3803 30.4998 20.5127C30.4979 20.645 30.4698 20.7756 30.417 20.897C30.3659 21.033 30.2861 21.1563 30.183 21.2588L22.231 29.2129C22.1361 29.3079 22.0234 29.3832 21.8994 29.4346C21.7753 29.486 21.6423 29.5127 21.508 29.5127C21.3737 29.5127 21.2408 29.486 21.1167 29.4346C20.9926 29.3832 20.8799 29.3079 20.785 29.2129L20.784 29.2139Z" fill="#2C2C2C"/>
</svg>
