<svg width="41" height="41" viewBox="0 0 41 41" fill="none" xmlns="http://www.w3.org/2000/svg">
<path d="M20.5 39C10.2827 39 2 30.7173 2 20.5C2 10.2827 10.2827 2 20.5 2C30.7173 2 39 10.2827 39 20.5C39 30.7173 30.7173 39 20.5 39Z" stroke="#F9593A" stroke-width="3"/>
<path d="M20.216 29.2139C20.4073 29.0214 20.5146 28.7615 20.5146 28.4902C20.5146 28.2189 20.4073 27.9585 20.216 27.7661L13.949 21.499H28.5C28.7652 21.499 29.0196 21.3936 29.2071 21.2061C29.3946 21.0185 29.5 20.7642 29.5 20.499C29.5 20.2338 29.3946 19.9795 29.2071 19.792C29.0196 19.6045 28.7652 19.499 28.5 19.499H13.944L20.215 13.2271C20.4068 13.0353 20.5145 12.7751 20.5145 12.5039C20.5145 12.2327 20.4068 11.9725 20.215 11.7808C20.0233 11.589 19.7632 11.4814 19.492 11.4814C19.2208 11.4814 18.9607 11.589 18.769 11.7808L10.817 19.7329C10.7062 19.8433 10.6224 19.9779 10.572 20.126C10.5227 20.2488 10.4983 20.3803 10.5002 20.5127C10.5021 20.645 10.5302 20.7756 10.583 20.897C10.6341 21.033 10.7139 21.1563 10.817 21.2588L18.769 29.2129C18.8639 29.3079 18.9766 29.3832 19.1006 29.4346C19.2247 29.486 19.3577 29.5127 19.492 29.5127C19.6263 29.5127 19.7592 29.486 19.8833 29.4346C20.0074 29.3832 20.1201 29.3079 20.215 29.2129L20.216 29.2139Z" fill="#2C2C2C"/>
</svg>
